<svg xmlns="http://www.w3.org/2000/svg" viewBox="0 0 477.43 104.41">
  <defs>
    <style>
      .cls-1 {
        fill: none;
      }
    </style>
  </defs>
  <g id="Outline">
    <g>
      <path class="cls-1" d="M1100.83,544.36l-.17.66a4.33,4.33,0,0,0-.19,1.15c0,.71.32,1.07,1,1.07h.68c.86,0,1.51-.74,2-2.22l.77-2.84h-2.06C1101.88,542.18,1101.23,542.91,1100.83,544.36Z" transform="translate(-709.57 -465)"/>
      <path class="cls-1" d="M1011.85,532.06a4.69,4.69,0,0,0,.16-1.12c0-.71-.31-1.07-.93-1.07h-.68c-.93,0-1.59.73-2,2.19l-.74,2.87h3.39Z" transform="translate(-709.57 -465)"/>
      <path class="cls-1" d="M1146.44,529.87h-.69c-.93,0-1.58.73-2,2.19l-.74,2.87h3.4l.76-2.87a4.77,4.77,0,0,0,.17-1.12C1147.37,530.23,1147.06,529.87,1146.44,529.87Z" transform="translate(-709.57 -465)"/>
      <path class="cls-1" d="M786.22,535.86l-.29,1.17a7.89,7.89,0,0,0-.35,2.05c0,1.27.57,1.91,1.71,1.91h1.22c1.53,0,2.71-1.32,3.52-4L793.4,532h-3.67Q787.3,532,786.22,535.86Z" transform="translate(-709.57 -465)"/>
      <path class="cls-1" d="M1172.93,469H748.77c-7.33,0-13.34,3.54-14.15,6.71l-21,82.56a2.78,2.78,0,0,0,.58,2.53c1.2,1.55,4.3,3.2,9.39,3.2H842.78l8.28-12.32q-5.8-2.1-5.81-7a10.7,10.7,0,0,1,.39-2.74l8.84-33q2.88-10.75,18.65-10.75h6q1.32,0,3.12.15L899.45,481l-12.69,18.26q6,2.06,6,7a10.7,10.7,0,0,1-.39,2.74l-8.84,33q-2.88,10.75-18.7,10.75h-6.1c-.81,0-1.84,0-3.08-.1L844.45,564h303.34c7.34,0,13.35-3.54,14.15-6.71l21-82.56a2.75,2.75,0,0,0-.57-2.53C1181.13,470.65,1178,469,1172.93,469ZM745.45,551.49H729.58l18.8-70.32h34.18l-3.13,11.72H761.12l-5,18.8H774.4l-3.12,11.72H753Zm43.94,0-7.61,1.22q-13.49,0-13.48-7.72a12.11,12.11,0,0,1,.44-3l2.93-11q2.54-9.53,17.19-9.52h7.32l2.1-7.57a8.05,8.05,0,0,0,.29-1.95c0-1.31-.57-2-1.71-2q-2.49,0-3.51,3.91l-1.61,5.86H775.92L778.8,509q2.88-10.75,18.55-10.75h4.93Q816,498.26,816,506a11.56,11.56,0,0,1-.44,3L804,551.49Zm17.09,0,18.8-70.32h15.87l-18.8,70.32Zm34.18,0H824.79l18.8-70.32h15.87Zm64.7,0-7.67,1.22q-12.26,0-12.25-7.52a12,12,0,0,1,.49-3.23l11.37-42.48h15.87l-10.06,37.6a8.83,8.83,0,0,0-.34,2.1c0,1.21.51,1.81,1.52,1.81h1.22q2.58,0,3.71-3.91l10.06-37.6h15.87l-13.92,52Zm58.15-43.95h-7.32l-7.91,29.54a7.26,7.26,0,0,0-.34,2c0,1.27.57,1.91,1.71,1.91h4.88l-3.13,11.72h-8.54q-12.25,0-12.26-7.52a12.44,12.44,0,0,1,.49-3.23l9.23-34.42h-4.88l2.15-8.06h4.88L946,486.4l17.39-5.76-5,18.84h7.32Zm20,46.26h-3.41q-7.64,0-7.63-4.4a6.54,6.54,0,0,1,.22-1.62l7.79-28.71c1.07-4,4.56-6,10.44-6h3.37c5.08,0,7.63,1.44,7.63,4.32a6.65,6.65,0,0,1-.25,1.69l-2.16,8.07H990.6l1.43-5.33a4.78,4.78,0,0,0,.19-1.15c0-.7-.31-1-.93-1h-.69c-.93,0-1.59.73-2,2.19l-6.21,23.24a4.52,4.52,0,0,0-.19,1.17c0,.68.28,1,.85,1h.68c1,0,1.68-.73,2.08-2.19l1.42-5.33h8.89L994,547.78Q992.35,553.79,983.49,553.8Zm22.56,0h-3.42q-7.54,0-7.54-4.32a6.87,6.87,0,0,1,.24-1.7l4.95-18.45q1.62-6,10.45-6h3.36q7.63,0,7.63,4.32a6.3,6.3,0,0,1-.25,1.7l-3.06,11.48h-12.3l-1.15,4.24a4.52,4.52,0,0,0-.19,1.17c0,.68.28,1,.85,1h.68c1,0,1.66-.73,2.08-2.19l.87-3.28h8.89l-1.61,6Q1014.91,553.79,1006.05,553.8Zm10.42-.69L1027,513.74h8.88l-10.52,39.37Zm19.14,0h-8.89l10.53-39.37h8.89Zm43.75,0,2.41-9.05-3.86,9.05h-8.72l1-9.05-2.41,9.05h-8.89l10.53-39.37h12.91l-1.23,11.13,4.81-11.13h12.91l-10.53,39.37Zm23.24,0-4.26.69q-7.54,0-7.55-4.32a6.47,6.47,0,0,1,.25-1.7l1.64-6.15q1.42-5.32,9.62-5.33h4.1l1.18-4.24a4.61,4.61,0,0,0,.16-1.09c0-.73-.32-1.1-1-1.1-.93,0-1.59.73-2,2.19l-.9,3.28h-8.86l1.61-6q1.62-6,10.39-6h2.76q7.67,0,7.66,4.35a6.21,6.21,0,0,1-.25,1.67l-6.42,23.78Zm24.12-5.87h2.74l-1.75,6.56h-4.79c-4.58,0-6.86-1.41-6.86-4.21a6.91,6.91,0,0,1,.27-1.81l5.17-19.28h-2.74L1120,524h2.73l2-7.32,9.73-3.23L1131.59,524h4.1l-1.2,4.51h-4.11L1126,545.05a4.08,4.08,0,0,0-.2,1.12C1125.76,546.88,1126.08,547.24,1126.72,547.24Zm30.11-17.91-3.07,11.48h-12.3l-1.15,4.24a4.52,4.52,0,0,0-.19,1.17c0,.68.28,1,.85,1h.68c1,0,1.66-.73,2.08-2.19l.87-3.28h8.89l-1.61,6q-1.62,6-10.48,6H1138q-7.54,0-7.55-4.32a6.47,6.47,0,0,1,.25-1.7l4.94-18.45q1.62-6,10.45-6h3.36q7.63,0,7.63,4.32A6.69,6.69,0,0,1,1156.83,529.33Z" transform="translate(-709.57 -465)"/>
      <path class="cls-1" d="M854.58,551l26.9-27.59H867.23L883.39,500h0l-28.42,28.76h14.21L854.38,551A.49.49,0,0,0,854.58,551Z" transform="translate(-709.57 -465)"/>
      <polygon points="64.84 46.69 46.53 46.69 51.56 27.89 69.87 27.89 72.99 16.17 38.81 16.17 20.01 86.49 35.88 86.49 43.4 58.41 61.71 58.41 64.84 46.69"/>
      <path d="M816,506q0-7.77-13.68-7.77h-4.93q-15.68,0-18.55,10.75l-2.88,10.74h15.82l1.61-5.86q1-3.92,3.51-3.91c1.14,0,1.71.65,1.71,2a8.05,8.05,0,0,1-.29,1.95l-2.1,7.57h-7.32q-14.65,0-17.19,9.52l-2.93,11a12.11,12.11,0,0,0-.44,3q0,7.72,13.48,7.72l7.61-1.22H804L815.52,509A11.56,11.56,0,0,0,816,506ZM792,537c-.81,2.64-2,4-3.52,4h-1.22c-1.14,0-1.71-.64-1.71-1.91a7.89,7.89,0,0,1,.35-2.05l.29-1.17q1.08-3.9,3.51-3.9h3.67Z" transform="translate(-709.57 -465)"/>
      <polygon points="115.72 16.17 96.92 86.49 112.79 86.49 131.59 16.17 115.72 16.17"/>
      <polygon points="115.23 86.49 131.1 86.49 149.9 16.17 134.03 16.17 115.23 86.49"/>
      <path d="M919.28,499.48l-10.06,37.6Q908.1,541,905.51,541h-1.22c-1,0-1.52-.6-1.52-1.81a8.83,8.83,0,0,1,.34-2.1l10.06-37.6H897.3L885.93,542a12,12,0,0,0-.49,3.23q0,7.51,12.25,7.52l7.67-1.22h15.87l13.92-52Z" transform="translate(-709.57 -465)"/>
      <path d="M963.37,480.64,946,486.4l-3.51,13.08h-4.88l-2.15,8.06h4.88L931.09,542a12.44,12.44,0,0,0-.49,3.23q0,7.51,12.26,7.52h8.54L954.53,541h-4.88c-1.14,0-1.71-.64-1.71-1.91a7.26,7.26,0,0,1,.34-2l7.91-29.54h7.32l2.15-8.06h-7.32Z" transform="translate(-709.57 -465)"/>
      <path d="M987.24,539.72l-1.42,5.33c-.4,1.46-1.1,2.19-2.08,2.19h-.68c-.57,0-.85-.34-.85-1a4.52,4.52,0,0,1,.19-1.17l6.21-23.24c.4-1.46,1.06-2.19,2-2.19h.69c.62,0,.93.34.93,1a4.78,4.78,0,0,1-.19,1.15l-1.43,5.33h8.89l2.16-8.07a6.65,6.65,0,0,0,.25-1.69c0-2.88-2.55-4.32-7.63-4.32H990.9c-5.88,0-9.37,2-10.44,6l-7.79,28.71a6.54,6.54,0,0,0-.22,1.62q0,4.4,7.63,4.4h3.41q8.87,0,10.48-6l2.16-8.06Z" transform="translate(-709.57 -465)"/>
      <path d="M1018.14,541.77h-8.89l-.87,3.28c-.42,1.46-1.12,2.19-2.08,2.19h-.68c-.57,0-.85-.34-.85-1a4.52,4.52,0,0,1,.19-1.17l1.15-4.24h12.3l3.06-11.48a6.3,6.3,0,0,0,.25-1.7q0-4.32-7.63-4.32h-3.36q-8.84,0-10.45,6l-4.95,18.45a6.87,6.87,0,0,0-.24,1.7q0,4.32,7.54,4.32h3.42q8.87,0,10.48-6Zm-9.71-9.71c.38-1.46,1-2.19,2-2.19h.68c.62,0,.93.36.93,1.07a4.69,4.69,0,0,1-.16,1.12l-.77,2.87h-3.39Z" transform="translate(-709.57 -465)"/>
      <polygon points="317.43 48.74 306.9 88.11 315.79 88.11 326.32 48.74 317.43 48.74"/>
      <polygon points="317.16 88.11 326.05 88.11 336.57 48.74 327.69 48.74 317.16 88.11"/>
      <polygon points="376.3 48.74 371.49 59.87 372.72 48.74 359.81 48.74 349.29 88.11 358.17 88.11 360.58 79.06 359.62 88.11 368.35 88.11 372.2 79.06 369.8 88.11 378.68 88.11 389.21 48.74 376.3 48.74"/>
      <path d="M1117.48,527.66q0-4.35-7.66-4.35h-2.76q-8.77,0-10.39,6l-1.61,6h8.86l.9-3.28c.38-1.46,1-2.19,2-2.19.63,0,1,.37,1,1.1a4.61,4.61,0,0,1-.16,1.09l-1.18,4.24h-4.1q-8.21,0-9.62,5.33l-1.64,6.15a6.47,6.47,0,0,0-.25,1.7q0,4.32,7.55,4.32l4.26-.69h8.21l6.42-23.78A6.21,6.21,0,0,0,1117.48,527.66ZM1104.08,545c-.46,1.48-1.11,2.22-2,2.22h-.68c-.64,0-1-.36-1-1.07a4.33,4.33,0,0,1,.19-1.15l.17-.66c.4-1.45,1.05-2.18,2-2.18h2.06Z" transform="translate(-709.57 -465)"/>
      <path d="M1130.38,528.5h4.11l1.2-4.51h-4.1l2.81-10.55-9.73,3.23-2,7.32H1120l-1.21,4.51h2.74l-5.17,19.28a6.91,6.91,0,0,0-.27,1.81c0,2.8,2.28,4.21,6.86,4.21h4.79l1.75-6.56h-2.74c-.64,0-1-.36-1-1.07a4.08,4.08,0,0,1,.2-1.12Z" transform="translate(-709.57 -465)"/>
      <path d="M1149.44,523.31h-3.36q-8.83,0-10.45,6l-4.94,18.45a6.47,6.47,0,0,0-.25,1.7q0,4.32,7.55,4.32h3.41q8.86,0,10.48-6l1.61-6h-8.89l-.87,3.28c-.42,1.46-1.11,2.19-2.08,2.19H1141c-.57,0-.85-.34-.85-1a4.52,4.52,0,0,1,.19-1.17l1.15-4.24h12.3l3.07-11.48a6.69,6.69,0,0,0,.24-1.7Q1157.07,523.31,1149.44,523.31Zm-2.24,8.75-.76,2.87H1143l.74-2.87c.39-1.46,1-2.19,2-2.19h.69c.62,0,.93.36.93,1.07A4.77,4.77,0,0,1,1147.2,532.06Z" transform="translate(-709.57 -465)"/>
      <path d="M1185.48,469.74c-2.3-3-7-4.74-12.55-4.74H748.77c-8.72,0-16.64,4.27-18,9.73l-21,82.56a6.82,6.82,0,0,0,1.3,6c2.31,3,7,4.74,12.55,4.74H840.09l-.94,1.41,1.38-1.41h307.26c8.73,0,16.65-4.27,18-9.73l21-82.56A6.82,6.82,0,0,0,1185.48,469.74Zm-2.58,5-21,82.56c-.8,3.17-6.81,6.71-14.15,6.71H844.45l11.15-11.39c1.24.06,2.27.1,3.08.1h6.1q15.83,0,18.7-10.75l8.84-33a10.7,10.7,0,0,0,.39-2.74q0-5-6-7L899.45,481l-17.19,17.43q-1.8-.15-3.12-.15h-6q-15.76,0-18.65,10.75l-8.84,33a10.7,10.7,0,0,0-.39,2.74q0,4.88,5.81,7L842.78,564H723.63c-5.09,0-8.19-1.65-9.39-3.2a2.78,2.78,0,0,1-.58-2.53l21-82.56c.81-3.17,6.82-6.71,14.15-6.71h424.16c5.1,0,8.2,1.65,9.4,3.2A2.75,2.75,0,0,1,1182.9,474.73Zm-328,54L883.34,500h0l-16.16,23.39h14.25L854.58,551a.49.49,0,0,1-.2,0l14.75-22.17Z" transform="translate(-709.57 -465)"/>
    </g>
  </g>
</svg>
